<svg xmlns="http://www.w3.org/2000/svg" width="512" height="512" viewBox="0 0 512 512">
  <defs>
    <linearGradient id="bg" x1="0" y1="0" x2="0" y2="1">
      <stop offset="0" stop-color="#4FA6EC"/>
      <stop offset="44%" stop-color="#8CC8F1"/>
      <stop offset="72%" stop-color="#FCD887"/>
      <stop offset="100%" stop-color="#F59A0A"/>
    </linearGradient>
    <radialGradient id="sun" cx="50%" cy="44%" r="60%">
      <stop offset="0" stop-color="#FFFEF8"/>
      <stop offset="52%" stop-color="#FFF3D0"/>
      <stop offset="100%" stop-color="#FFCF63"/>
    </radialGradient>
    <radialGradient id="glow" cx="50%" cy="50%" r="50%">
      <stop offset="0" stop-color="#FFFFFF" stop-opacity=".85"/>
      <stop offset="100%" stop-color="#FFFFFF" stop-opacity="0"/>
    </radialGradient>
  </defs>
  <rect width="512" height="512" fill="url(#bg)"/>
  <circle cx="256" cy="228" r="190" fill="url(#glow)" opacity=".6"/>
  <g stroke="#FFFFFF" stroke-width="24" stroke-linecap="round" opacity=".95">
    <line x1="256" y1="78" x2="256" y2="118" transform="rotate(0 256 228)"/>
    <line x1="256" y1="78" x2="256" y2="118" transform="rotate(45 256 228)"/>
    <line x1="256" y1="78" x2="256" y2="118" transform="rotate(90 256 228)"/>
    <line x1="256" y1="78" x2="256" y2="118" transform="rotate(135 256 228)"/>
    <line x1="256" y1="78" x2="256" y2="118" transform="rotate(180 256 228)"/>
    <line x1="256" y1="78" x2="256" y2="118" transform="rotate(225 256 228)"/>
    <line x1="256" y1="78" x2="256" y2="118" transform="rotate(270 256 228)"/>
    <line x1="256" y1="78" x2="256" y2="118" transform="rotate(315 256 228)"/>
  </g>
  <circle cx="256" cy="228" r="98" fill="url(#sun)"/>
  <path d="M40 452 L188 452 L256 388 L324 452 L472 452 L472 512 L40 512 Z" fill="#FFFFFF" opacity=".18"/>
</svg>
